<svg xmlns="http://www.w3.org/2000/svg" xmlns:xlink="http://www.w3.org/1999/xlink" contentstyletype="text/css" height="458px" preserveAspectRatio="none" style="width:693px;height:458px;background:#FFFFFF;" version="1.1" viewBox="0 0 693 458" width="693px" zoomAndPan="magnify"><defs></defs><g><!--class MusicPlayer--><g id="elem_MusicPlayer"><rect codeline="1" fill="#F1F1F1" height="96.8906" id="MusicPlayer" rx="2.5" ry="2.5" style="stroke:#181818;stroke-width:0.5;" width="119" x="7" y="7"></rect><ellipse cx="24.7" cy="23" fill="#ADD1B2" rx="11" ry="11" style="stroke:#181818;stroke-width:1.0;"></ellipse><path d="M27.6688,28.6406 Q27.0906,28.9375 26.45,29.0781 Q25.8094,29.2344 25.1063,29.2344 Q22.6063,29.2344 21.2781,27.5938 Q19.9656,25.9375 19.9656,22.8125 Q19.9656,19.6875 21.2781,18.0313 Q22.6063,16.375 25.1063,16.375 Q25.8094,16.375 26.45,16.5313 Q27.1063,16.6875 27.6688,16.9844 L27.6688,19.7031 Q27.0438,19.125 26.45,18.8594 Q25.8563,18.5781 25.2313,18.5781 Q23.8875,18.5781 23.2,19.6563 Q22.5125,20.7188 22.5125,22.8125 Q22.5125,24.9063 23.2,25.9844 Q23.8875,27.0469 25.2313,27.0469 Q25.8563,27.0469 26.45,26.7813 Q27.0438,26.5 27.6688,25.9219 L27.6688,28.6406 Z " fill="#000000"></path><text fill="#000000" font-family="sans-serif" font-size="14" lengthAdjust="spacing" textLength="81" x="39.3" y="27.8467">MusicPlayer</text><line style="stroke:#181818;stroke-width:0.5;" x1="8" x2="125" y1="39" y2="39"></line><line style="stroke:#181818;stroke-width:0.5;" x1="8" x2="125" y1="47" y2="47"></line><ellipse cx="18" cy="60.6484" fill="#84BE84" rx="3" ry="3" style="stroke:#038048;stroke-width:1.0;"></ellipse><text fill="#000000" font-family="sans-serif" font-size="14" lengthAdjust="spacing" textLength="77" x="27" y="63.9951">playMusic()</text><ellipse cx="18" cy="76.9453" fill="#84BE84" rx="3" ry="3" style="stroke:#038048;stroke-width:1.0;"></ellipse><text fill="#000000" font-family="sans-serif" font-size="14" lengthAdjust="spacing" textLength="93" x="27" y="80.292">pauseMusic()</text><ellipse cx="18" cy="93.2422" fill="#84BE84" rx="3" ry="3" style="stroke:#038048;stroke-width:1.0;"></ellipse><text fill="#000000" font-family="sans-serif" font-size="14" lengthAdjust="spacing" textLength="81" x="27" y="96.5889">stopMusic()</text></g><!--class Phone--><g id="elem_Phone"><rect codeline="7" fill="#F1F1F1" height="96.8906" id="Phone" rx="2.5" ry="2.5" style="stroke:#181818;stroke-width:0.5;" width="134" x="220.5" y="180.89"></rect><ellipse cx="261.15" cy="196.89" fill="#ADD1B2" rx="11" ry="11" style="stroke:#181818;stroke-width:1.0;"></ellipse><path d="M264.1188,202.5306 Q263.5406,202.8275 262.9,202.9681 Q262.2594,203.1244 261.5563,203.1244 Q259.0563,203.1244 257.7281,201.4838 Q256.4156,199.8275 256.4156,196.7025 Q256.4156,193.5775 257.7281,191.9213 Q259.0563,190.265 261.5563,190.265 Q262.2594,190.265 262.9,190.4213 Q263.5563,190.5775 264.1188,190.8744 L264.1188,193.5931 Q263.4938,193.015 262.9,192.7494 Q262.3063,192.4681 261.6813,192.4681 Q260.3375,192.4681 259.65,193.5463 Q258.9625,194.6088 258.9625,196.7025 Q258.9625,198.7963 259.65,199.8744 Q260.3375,200.9369 261.6813,200.9369 Q262.3063,200.9369 262.9,200.6713 Q263.4938,200.39 264.1188,199.8119 L264.1188,202.5306 Z " fill="#000000"></path><text fill="#000000" font-family="sans-serif" font-size="14" lengthAdjust="spacing" textLength="45" x="280.85" y="201.7367">Phone</text><line style="stroke:#181818;stroke-width:0.5;" x1="221.5" x2="353.5" y1="212.89" y2="212.89"></line><line style="stroke:#181818;stroke-width:0.5;" x1="221.5" x2="353.5" y1="220.89" y2="220.89"></line><ellipse cx="231.5" cy="234.5384" fill="#84BE84" rx="3" ry="3" style="stroke:#038048;stroke-width:1.0;"></ellipse><text fill="#000000" font-family="sans-serif" font-size="14" lengthAdjust="spacing" textLength="72" x="240.5" y="237.8851">makeCall()</text><ellipse cx="231.5" cy="250.8353" fill="#84BE84" rx="3" ry="3" style="stroke:#038048;stroke-width:1.0;"></ellipse><text fill="#000000" font-family="sans-serif" font-size="14" lengthAdjust="spacing" textLength="84" x="240.5" y="254.182">receiveCall()</text><ellipse cx="231.5" cy="267.1322" fill="#84BE84" rx="3" ry="3" style="stroke:#038048;stroke-width:1.0;"></ellipse><text fill="#000000" font-family="sans-serif" font-size="14" lengthAdjust="spacing" textLength="108" x="240.5" y="270.4789">sendMessage()</text></g><!--class InternetBrowser--><g id="elem_InternetBrowser"><rect codeline="13" fill="#F1F1F1" height="96.8906" id="InternetBrowser" rx="2.5" ry="2.5" style="stroke:#181818;stroke-width:0.5;" width="143" x="24" y="354.78"></rect><ellipse cx="39" cy="370.78" fill="#ADD1B2" rx="11" ry="11" style="stroke:#181818;stroke-width:1.0;"></ellipse><path d="M41.9688,376.4206 Q41.3906,376.7175 40.75,376.8581 Q40.1094,377.0144 39.4063,377.0144 Q36.9063,377.0144 35.5781,375.3738 Q34.2656,373.7175 34.2656,370.5925 Q34.2656,367.4675 35.5781,365.8113 Q36.9063,364.155 39.4063,364.155 Q40.1094,364.155 40.75,364.3113 Q41.4063,364.4675 41.9688,364.7644 L41.9688,367.4831 Q41.3438,366.905 40.75,366.6394 Q40.1563,366.3581 39.5313,366.3581 Q38.1875,366.3581 37.5,367.4363 Q36.8125,368.4988 36.8125,370.5925 Q36.8125,372.6863 37.5,373.7644 Q38.1875,374.8269 39.5313,374.8269 Q40.1563,374.8269 40.75,374.5613 Q41.3438,374.28 41.9688,373.7019 L41.9688,376.4206 Z " fill="#000000"></path><text fill="#000000" font-family="sans-serif" font-size="14" lengthAdjust="spacing" textLength="111" x="53" y="375.6267">InternetBrowser</text><line style="stroke:#181818;stroke-width:0.5;" x1="25" x2="166" y1="386.78" y2="386.78"></line><line style="stroke:#181818;stroke-width:0.5;" x1="25" x2="166" y1="394.78" y2="394.78"></line><ellipse cx="35" cy="408.4284" fill="#84BE84" rx="3" ry="3" style="stroke:#038048;stroke-width:1.0;"></ellipse><text fill="#000000" font-family="sans-serif" font-size="14" lengthAdjust="spacing" textLength="73" x="44" y="411.7751">openURL()</text><ellipse cx="35" cy="424.7253" fill="#84BE84" rx="3" ry="3" style="stroke:#038048;stroke-width:1.0;"></ellipse><text fill="#000000" font-family="sans-serif" font-size="14" lengthAdjust="spacing" textLength="114" x="44" y="428.072">bookmarkPage()</text><ellipse cx="35" cy="441.0222" fill="#84BE84" rx="3" ry="3" style="stroke:#038048;stroke-width:1.0;"></ellipse><text fill="#000000" font-family="sans-serif" font-size="14" lengthAdjust="spacing" textLength="73" x="44" y="444.3689">closeTab()</text></g><!--class Camera--><g id="elem_Camera"><rect codeline="19" fill="#F1F1F1" height="96.8906" id="Camera" rx="2.5" ry="2.5" style="stroke:#181818;stroke-width:0.5;" width="120" x="161.5" y="7"></rect><ellipse cx="192.25" cy="23" fill="#ADD1B2" rx="11" ry="11" style="stroke:#181818;stroke-width:1.0;"></ellipse><path d="M195.2188,28.6406 Q194.6406,28.9375 194,29.0781 Q193.3594,29.2344 192.6563,29.2344 Q190.1563,29.2344 188.8281,27.5938 Q187.5156,25.9375 187.5156,22.8125 Q187.5156,19.6875 188.8281,18.0313 Q190.1563,16.375 192.6563,16.375 Q193.3594,16.375 194,16.5313 Q194.6563,16.6875 195.2188,16.9844 L195.2188,19.7031 Q194.5938,19.125 194,18.8594 Q193.4063,18.5781 192.7813,18.5781 Q191.4375,18.5781 190.75,19.6563 Q190.0625,20.7188 190.0625,22.8125 Q190.0625,24.9063 190.75,25.9844 Q191.4375,27.0469 192.7813,27.0469 Q193.4063,27.0469 194,26.7813 Q194.5938,26.5 195.2188,25.9219 L195.2188,28.6406 Z " fill="#000000"></path><text fill="#000000" font-family="sans-serif" font-size="14" lengthAdjust="spacing" textLength="53" x="209.75" y="27.8467">Camera</text><line style="stroke:#181818;stroke-width:0.5;" x1="162.5" x2="280.5" y1="39" y2="39"></line><line style="stroke:#181818;stroke-width:0.5;" x1="162.5" x2="280.5" y1="47" y2="47"></line><ellipse cx="172.5" cy="60.6484" fill="#84BE84" rx="3" ry="3" style="stroke:#038048;stroke-width:1.0;"></ellipse><text fill="#000000" font-family="sans-serif" font-size="14" lengthAdjust="spacing" textLength="81" x="181.5" y="63.9951">takePhoto()</text><ellipse cx="172.5" cy="76.9453" fill="#84BE84" rx="3" ry="3" style="stroke:#038048;stroke-width:1.0;"></ellipse><text fill="#000000" font-family="sans-serif" font-size="14" lengthAdjust="spacing" textLength="94" x="181.5" y="80.292">recordVideo()</text><ellipse cx="172.5" cy="93.2422" fill="#84BE84" rx="3" ry="3" style="stroke:#038048;stroke-width:1.0;"></ellipse><text fill="#000000" font-family="sans-serif" font-size="14" lengthAdjust="spacing" textLength="77" x="181.5" y="96.5889">editPhoto()</text></g><!--class Calendar--><g id="elem_Calendar"><rect codeline="25" fill="#F1F1F1" height="96.8906" id="Calendar" rx="2.5" ry="2.5" style="stroke:#181818;stroke-width:0.5;" width="127" x="365" y="7"></rect><ellipse cx="395.3" cy="23" fill="#ADD1B2" rx="11" ry="11" style="stroke:#181818;stroke-width:1.0;"></ellipse><path d="M398.2688,28.6406 Q397.6906,28.9375 397.05,29.0781 Q396.4094,29.2344 395.7063,29.2344 Q393.2063,29.2344 391.8781,27.5938 Q390.5656,25.9375 390.5656,22.8125 Q390.5656,19.6875 391.8781,18.0313 Q393.2063,16.375 395.7063,16.375 Q396.4094,16.375 397.05,16.5313 Q397.7063,16.6875 398.2688,16.9844 L398.2688,19.7031 Q397.6438,19.125 397.05,18.8594 Q396.4563,18.5781 395.8313,18.5781 Q394.4875,18.5781 393.8,19.6563 Q393.1125,20.7188 393.1125,22.8125 Q393.1125,24.9063 393.8,25.9844 Q394.4875,27.0469 395.8313,27.0469 Q396.4563,27.0469 397.05,26.7813 Q397.6438,26.5 398.2688,25.9219 L398.2688,28.6406 Z " fill="#000000"></path><text fill="#000000" font-family="sans-serif" font-size="14" lengthAdjust="spacing" textLength="61" x="412.7" y="27.8467">Calendar</text><line style="stroke:#181818;stroke-width:0.5;" x1="366" x2="491" y1="39" y2="39"></line><line style="stroke:#181818;stroke-width:0.5;" x1="366" x2="491" y1="47" y2="47"></line><ellipse cx="376" cy="60.6484" fill="#84BE84" rx="3" ry="3" style="stroke:#038048;stroke-width:1.0;"></ellipse><text fill="#000000" font-family="sans-serif" font-size="14" lengthAdjust="spacing" textLength="75" x="385" y="63.9951">addEvent()</text><ellipse cx="376" cy="76.9453" fill="#84BE84" rx="3" ry="3" style="stroke:#038048;stroke-width:1.0;"></ellipse><text fill="#000000" font-family="sans-serif" font-size="14" lengthAdjust="spacing" textLength="101" x="385" y="80.292">removeEvent()</text><ellipse cx="376" cy="93.2422" fill="#84BE84" rx="3" ry="3" style="stroke:#038048;stroke-width:1.0;"></ellipse><text fill="#000000" font-family="sans-serif" font-size="14" lengthAdjust="spacing" textLength="87" x="385" y="96.5889">viewEvents()</text></g><!--class Settings--><g id="elem_Settings"><rect codeline="31" fill="#F1F1F1" height="96.8906" id="Settings" rx="2.5" ry="2.5" style="stroke:#181818;stroke-width:0.5;" width="157" x="527" y="7"></rect><ellipse cx="572.75" cy="23" fill="#ADD1B2" rx="11" ry="11" style="stroke:#181818;stroke-width:1.0;"></ellipse><path d="M575.7188,28.6406 Q575.1406,28.9375 574.5,29.0781 Q573.8594,29.2344 573.1563,29.2344 Q570.6563,29.2344 569.3281,27.5938 Q568.0156,25.9375 568.0156,22.8125 Q568.0156,19.6875 569.3281,18.0313 Q570.6563,16.375 573.1563,16.375 Q573.8594,16.375 574.5,16.5313 Q575.1563,16.6875 575.7188,16.9844 L575.7188,19.7031 Q575.0938,19.125 574.5,18.8594 Q573.9063,18.5781 573.2813,18.5781 Q571.9375,18.5781 571.25,19.6563 Q570.5625,20.7188 570.5625,22.8125 Q570.5625,24.9063 571.25,25.9844 Q571.9375,27.0469 573.2813,27.0469 Q573.9063,27.0469 574.5,26.7813 Q575.0938,26.5 575.7188,25.9219 L575.7188,28.6406 Z " fill="#000000"></path><text fill="#000000" font-family="sans-serif" font-size="14" lengthAdjust="spacing" textLength="57" x="593.25" y="27.8467">Settings</text><line style="stroke:#181818;stroke-width:0.5;" x1="528" x2="683" y1="39" y2="39"></line><line style="stroke:#181818;stroke-width:0.5;" x1="528" x2="683" y1="47" y2="47"></line><ellipse cx="538" cy="60.6484" fill="#84BE84" rx="3" ry="3" style="stroke:#038048;stroke-width:1.0;"></ellipse><text fill="#000000" font-family="sans-serif" font-size="14" lengthAdjust="spacing" textLength="114" x="547" y="63.9951">changeVolume()</text><ellipse cx="538" cy="76.9453" fill="#84BE84" rx="3" ry="3" style="stroke:#038048;stroke-width:1.0;"></ellipse><text fill="#000000" font-family="sans-serif" font-size="14" lengthAdjust="spacing" textLength="127" x="547" y="80.292">adjustBrightness()</text><ellipse cx="538" cy="93.2422" fill="#84BE84" rx="3" ry="3" style="stroke:#038048;stroke-width:1.0;"></ellipse><text fill="#000000" font-family="sans-serif" font-size="14" lengthAdjust="spacing" textLength="131" x="547" y="96.5889">manageAccounts()</text></g><!--link MusicPlayer to Phone--><g id="link_MusicPlayer_Phone"><path codeline="37" d="M116.76,104.32 C133.7,119.73 153.01,136.52 171.5,150.89 C186.8,162.78 198.8805,171.4527 215.1105,182.3627 " fill="none" id="MusicPlayer-to-Phone" style="stroke:#181818;stroke-width:1.0;"></path><polygon fill="#181818" points="220.09,185.71,214.8522,177.3694,215.9404,182.9206,210.3892,184.0087,220.09,185.71" style="stroke:#181818;stroke-width:1.0;"></polygon><text fill="#000000" font-family="sans-serif" font-size="13" lengthAdjust="spacing" textLength="32" x="172.5" y="146.9569">Uses</text></g><!--link MusicPlayer to InternetBrowser--><g id="link_MusicPlayer_InternetBrowser"><path codeline="38" d="M70.3,104.38 C73.88,149.21 79.43,218.04 84.5,277.78 C86.65,303.07 88.5977,325.2537 90.6577,348.3837 " fill="none" id="MusicPlayer-to-InternetBrowser" style="stroke:#181818;stroke-width:1.0;"></path><polygon fill="#181818" points="91.19,354.36,94.3758,345.0406,90.7464,349.3797,86.4074,345.7503,91.19,354.36" style="stroke:#181818;stroke-width:1.0;"></polygon><text fill="#000000" font-family="sans-serif" font-size="13" lengthAdjust="spacing" textLength="117" x="85.5" y="233.8969">Can stream music</text></g><!--link Phone to InternetBrowser--><g id="link_Phone_InternetBrowser"><path codeline="39" d="M234.02,278.22 C207.5,301.96 180.0205,326.5581 153.5005,350.2981 " fill="none" id="Phone-to-InternetBrowser" style="stroke:#181818;stroke-width:1.0;"></path><polygon fill="#181818" points="149.03,354.3,158.4036,351.2775,152.7554,350.9651,153.0678,345.3169,149.03,354.3" style="stroke:#181818;stroke-width:1.0;"></polygon><text fill="#000000" font-family="sans-serif" font-size="13" lengthAdjust="spacing" textLength="174" x="197.5" y="320.8469">Can access contacts online</text></g><!--link Camera to Phone--><g id="link_Camera_Phone"><path codeline="40" d="M212.85,104.24 C211.94,119.56 212.95,136.32 218.5,150.89 C222.54,161.49 225.1,166.8133 232.19,175.9833 " fill="none" id="Camera-to-Phone" style="stroke:#181818;stroke-width:1.0;"></path><polygon fill="#181818" points="235.86,180.73,233.5194,171.1633,232.8017,176.7744,227.1905,176.0566,235.86,180.73" style="stroke:#181818;stroke-width:1.0;"></polygon><text fill="#000000" font-family="sans-serif" font-size="13" lengthAdjust="spacing" textLength="165" x="219.5" y="146.9569">Takes photos for contacts</text></g><!--link Calendar to Phone--><g id="link_Calendar_Phone"><path codeline="41" d="M414.4,104.23 C408.31,120.05 400.11,137.12 389.5,150.89 C379.8,163.48 372.2286,171.3111 359.6186,181.4911 " fill="none" id="Calendar-to-Phone" style="stroke:#181818;stroke-width:1.0;"></path><polygon fill="#181818" points="354.95,185.26,364.4654,182.719,358.8405,182.1192,359.4402,176.4943,354.95,185.26" style="stroke:#181818;stroke-width:1.0;"></polygon><text fill="#000000" font-family="sans-serif" font-size="13" lengthAdjust="spacing" textLength="85" x="400.5" y="146.9569">Syncs events</text></g><!--link Settings to Phone--><g id="link_Settings_Phone"><path codeline="42" d="M556.65,104.38 C538.24,120.68 516.42,138 494.5,150.89 C450.67,176.66 402.4841,194.7015 360.6641,207.8415 " fill="none" id="Settings-to-Phone" style="stroke:#181818;stroke-width:1.0;"></path><polygon fill="#181818" points="354.94,209.64,364.7252,210.7583,359.7101,208.1412,362.3271,203.1261,354.94,209.64" style="stroke:#181818;stroke-width:1.0;"></polygon><text fill="#000000" font-family="sans-serif" font-size="13" lengthAdjust="spacing" textLength="167" x="518.5" y="146.9569">Configures phone settings</text></g><!--SRC=[TP7DJWCn38JlUOeSGQWlq0CIL1oGGAhepzrDt6reOg_Yx5OLujr9Tziq1R6tdOm_ZSV6WuX-xyIPkOSZHlsbTFuUT9j_1_tk_g909tWhIUBsedmhPGRQVCU4XHDWZpFmlin4DEZwMqsGx3kAG8CrwPKIHiBq7FaWLJPkaLOVRsLymxmF4FVpSNuKZMV19Mngu0m2HYYSbBFbj8dhS1pjsbcyQcXTkhWgai-PuPe9h7tfaLA52jpZhTOxF0oArAm5fkIeaS8oEw06r-oxSDq7x6SdkGhNx1Bbhif30CfxFnd3NG7N5vrC7iytcUgLeFnv_5tpD6z7-ROH8UXmCgjn_dyp69CZQSEKm2JHJDuHgdFVTO9bxbnqU-fJz9PZcL6bqjg-E98HZKDdgXHLEsPCMzTqSQHcISwk7m00]--></g></svg>